<svg width="158" height="70" viewBox="0 0 158 70" fill="none" xmlns="http://www.w3.org/2000/svg">
<g clip-path="url(#clip0_1_1976)">
<path d="M74.6624 30.7725C73.8562 30.9186 70.3753 30.9322 69.4315 30.798C69.3549 30.6382 69.2608 30.4683 69.186 30.2898C68.8098 29.3925 68.1168 28.8011 67.2131 28.4714C65.5379 27.8629 63.8349 27.8222 62.1336 28.3813C61.1846 28.694 60.4428 29.2803 59.9291 30.1165C59.2413 31.2364 59.0271 32.4617 59.0863 33.8298C59.297 33.772 59.4572 33.7602 59.5826 33.6905C61.007 32.9036 62.5585 32.5977 64.1692 32.528C65.8339 32.4549 67.4934 32.494 69.1181 32.9206C70.1855 33.201 71.1972 33.5987 72.1149 34.2054C73.6455 35.2166 74.6102 36.6119 75.0316 38.3573C75.3642 39.7372 75.352 41.1257 75.0124 42.5057C74.5039 44.5655 73.299 46.1358 71.4479 47.232C70.3579 47.8778 69.1738 48.2941 67.9235 48.5338C65.4456 49.0096 62.9677 49.0504 60.5055 48.4658C57.4983 47.752 55.3564 46.0083 54.1097 43.2331C53.5037 41.8837 53.1676 40.4663 52.9865 39.0133C52.7445 37.0741 52.7218 35.1316 52.9726 33.1891C53.1432 31.8652 53.434 30.5702 53.9529 29.3313C55.2206 26.2977 57.4634 24.3331 60.7284 23.5497C63.5946 22.8614 66.4608 22.9344 69.2939 23.7638C70.3544 24.0748 71.3295 24.5609 72.188 25.2474C73.7987 26.5357 74.6084 28.2181 74.7286 30.2303C74.7373 30.4156 74.6833 30.6025 74.6624 30.7725ZM64.2197 43.9961C64.4182 43.9961 64.6185 44.0131 64.8153 43.9927C65.8827 43.8857 66.8961 43.6324 67.7912 43.0087C69.6944 41.6814 69.785 38.4626 67.3646 37.2458C67.0128 37.069 66.6384 36.9195 66.2571 36.8226C65.0869 36.5252 63.8959 36.4708 62.71 36.7156C62.165 36.8277 61.613 36.9892 61.1132 37.2237C60.2008 37.6537 59.5878 38.381 59.3824 39.3549C59.0202 41.0764 59.6453 42.538 61.2403 43.3639C62.1685 43.8449 63.1767 44.0182 64.2197 43.9961Z" fill="#A600A0"/>
<path d="M47.7068 54.5466C47.7173 55.913 47.571 57.1027 47.3464 58.2804C47.1218 59.4564 46.8362 60.6206 46.5732 61.817C46.6777 62.1025 46.9859 62.1875 47.2402 62.3235C49.2287 63.3873 51.3166 64.2184 53.488 64.8506C53.6134 64.888 53.737 64.9356 53.8572 64.9832C53.8833 64.9934 53.8972 65.0307 53.9599 65.1123C53.8485 65.2024 53.744 65.3112 53.6169 65.3808C49.8835 67.4491 45.9081 68.8461 41.6645 69.5259C38.5945 70.017 35.5124 70.1275 32.4216 69.8505C28.7248 69.5191 25.162 68.6387 21.7386 67.2214C21.3085 67.0429 21.0229 66.8084 20.8784 66.3665C20.1436 64.1385 19.5776 61.8765 19.3791 59.5363C19.3652 59.3783 19.3774 59.2168 19.3774 58.9959C20.1679 58.69 20.9724 58.4028 21.756 58.0714C22.517 57.7502 23.2727 57.4069 24.0058 57.0296C24.7685 56.637 25.5033 56.1934 26.2678 55.7601C33.5378 58.6781 40.6441 58.328 47.7068 54.5466Z" fill="#A600A0"/>
<path d="M12.635 37.7233C13.7842 45.3285 17.8015 51.0643 24.6744 54.9884C24.4881 55.126 24.3558 55.2484 24.2008 55.3317C22.3863 56.3055 20.4622 57.0125 18.4771 57.5699C18.2855 57.6243 18.094 57.6736 17.9059 57.7347C17.8467 57.7551 17.798 57.8061 17.744 57.8435C17.5681 58.7017 17.5716 59.1538 17.9704 61.7846C18.1689 63.0864 18.4597 64.3763 18.7261 65.7614C18.3831 65.5897 18.1149 65.4691 17.8589 65.3246C11.9054 61.9427 7.30307 57.2878 4.05378 51.3634C2.17142 47.9287 0.933341 44.2765 0.327363 40.4323C0.0800966 38.8654 0.0313397 39.2461 0.992546 38.1754C2.30898 36.707 3.76472 35.378 5.35106 34.1867C5.61051 33.9913 5.8839 33.8111 6.17296 33.6072C6.92695 34.0286 7.4981 34.6286 8.18244 35.0755C8.9016 35.5429 9.60683 36.0306 10.3434 36.4708C11.0539 36.8923 11.7922 37.2645 12.635 37.7233Z" fill="#A600A0"/>
<path d="M50.8186 10.1494C50.5626 10.2616 50.324 10.3703 50.082 10.4689C48.2676 11.2099 46.528 12.0936 44.9295 13.2136C44.4158 13.5739 43.9595 13.6368 43.364 13.4226C41.5478 12.7717 39.655 12.4097 37.7343 12.2568C36.2473 12.1378 34.7532 12.1616 33.2557 12.3248C29.7278 12.7088 26.4715 13.8135 23.4521 15.6184C23.3406 15.6846 23.2135 15.7254 23.0202 15.8104C22.9715 15.5997 22.8948 15.4263 22.8983 15.2547C22.9332 13.3376 23.1386 11.4376 23.5583 9.56309C23.621 9.28098 23.6628 8.99207 23.7098 8.73714C23.4921 8.34966 23.1177 8.26299 22.7973 8.11173C21.0282 7.28069 19.1876 6.63488 17.2861 6.15053C16.943 6.06216 16.6035 5.95849 16.149 5.83103C16.4084 5.62539 16.5652 5.47074 16.748 5.36027C19.7866 3.51973 23.0202 2.11596 26.4802 1.21183C28.0857 0.792063 29.7138 0.484456 31.3576 0.27372C33.5709 -0.0100934 35.8067 -0.0678758 38.0286 0.0765802C41.3841 0.295814 44.6665 0.934819 47.8479 2.03608C48.4591 2.24682 48.8387 2.57142 49.0703 3.18323C49.8905 5.35008 50.5069 7.5645 50.8604 9.84861C50.8691 9.90979 50.843 9.97437 50.8186 10.1494Z" fill="#202BA3"/>
<path d="M21.7247 9.67009C21.2389 12.0698 21.2963 14.5306 21.3799 16.9915C21.103 17.2311 20.8592 17.4486 20.6102 17.6594C16.5199 21.1093 13.9375 25.4226 12.8544 30.5856C12.5671 31.952 12.447 33.3422 12.4017 34.7375C12.3912 35.0587 12.3999 35.3799 12.3999 35.6654C12.0726 35.8506 11.8932 35.6433 11.7121 35.5362C10.1519 34.5998 8.69616 33.5257 7.35535 32.3038C7.06629 32.0404 6.77027 31.7838 6.44116 31.4914C6.15558 31.6427 5.88916 31.7617 5.64712 31.9163C3.94237 32.9989 2.37519 34.248 0.908997 35.6212C0.696557 35.82 0.47541 36.0104 0.271676 36.1922C-0.0696218 36.0614 0.00525479 35.8013 0.00525479 35.594C3.08455e-05 33.9727 0.0522703 32.3565 0.25078 30.742C0.518943 28.5462 0.980391 26.3964 1.6804 24.2958C3.84137 17.8072 7.62351 12.3876 12.9833 8.01309C13.086 7.92982 13.1975 7.85844 13.2932 7.76837C13.6067 7.47605 13.9793 7.38428 14.3955 7.45566C16.8177 7.87373 19.1876 8.47535 21.4513 9.43386C21.5349 9.46955 21.5958 9.55622 21.7247 9.67009Z" fill="#202BA3"/>
<path d="M34.6487 40.6959C34.701 40.9049 34.7497 41.1224 34.8107 41.3366C35.0666 42.2407 35.6395 42.8814 36.5241 43.2366C36.8898 43.3845 37.2764 43.5204 37.6647 43.5731C39.1239 43.7685 40.5866 43.7889 42.018 43.3998C42.4916 43.2723 42.96 43.065 43.3744 42.8049C44.717 41.9654 44.8998 40.3713 43.8986 39.1714C43.4667 38.6548 42.8938 38.3353 42.2617 38.1008C41.2849 37.7388 40.2627 37.6334 39.2301 37.5909C38.8348 37.5739 38.4378 37.5756 38.0234 37.5688C37.7483 36.94 37.8858 36.3214 37.8736 35.7215C37.8614 35.1131 37.8109 34.4979 37.9241 33.9166C38.2741 33.6753 38.6172 33.7637 38.9393 33.7569C39.8047 33.7365 40.6754 33.7518 41.5095 33.4935C42.011 33.3371 42.5003 33.1264 42.9705 32.8902C43.3588 32.6947 43.6444 32.3684 43.8603 31.9911C44.4454 30.9697 44.2016 29.8379 43.2438 29.1343C42.7545 28.774 42.1904 28.5752 41.6035 28.4545C40.3864 28.203 39.157 28.1792 37.9398 28.4477C37.4923 28.5463 37.0517 28.7213 36.6425 28.9304C35.9651 29.2771 35.5263 29.8379 35.3365 30.5704C35.2634 30.8525 35.1937 31.1346 35.1258 31.4099C34.3231 31.5357 30.2623 31.5425 29.2837 31.4133C29.2646 31.2485 29.221 31.0632 29.228 30.8814C29.2663 29.8022 29.4822 28.757 29.921 27.7628C30.5932 26.2384 31.7216 25.1354 33.2208 24.3774C34.5686 23.696 36.0209 23.3442 37.5184 23.2133C39.4426 23.045 41.3702 23.045 43.2839 23.3781C44.6682 23.6195 45.9951 24.0206 47.2053 24.7377C48.4661 25.4855 49.4551 26.4865 49.8974 27.8801C50.6497 30.2441 50.1725 32.8851 47.5501 34.5132C47.2141 34.7222 46.8553 34.8938 46.5158 35.0995C46.2894 35.2371 46.3295 35.5244 46.5854 35.6314C46.8292 35.7334 47.0852 35.8099 47.3307 35.9101C51.9295 37.7711 52.1002 43.2638 49.3698 45.8623C48.5479 46.6441 47.6076 47.2355 46.5628 47.6808C45.0548 48.3249 43.4615 48.6614 41.8334 48.7905C39.5749 48.9707 37.3094 48.9741 35.0875 48.454C34.2848 48.2671 33.4855 48.0105 32.7368 47.674C30.5113 46.6764 29.2628 44.9293 28.8397 42.601C28.7596 42.154 28.7161 41.7003 28.6812 41.2482C28.6673 41.0647 28.7178 40.876 28.7387 40.6976C28.8728 40.6483 28.9633 40.5871 29.0539 40.5871C30.8161 40.582 32.5783 40.582 34.3405 40.5888C34.4328 40.5871 34.5233 40.65 34.6487 40.6959Z" fill="#A600A0"/>
<path d="M46.0229 14.3215C46.4513 14.07 46.8135 13.844 47.1879 13.64C48.6419 12.8515 50.1568 12.1972 51.7345 11.6822C52.074 11.5718 52.4014 11.4239 52.781 11.2744C52.673 8.63167 52.0705 6.12153 51.3096 3.62329C52.6783 3.84932 56.8174 6.47842 59.6087 8.8645C63.1227 11.8675 66.6854 16.5683 67.9026 19.714C67.5926 19.8754 67.2583 19.8075 66.9518 19.7633C65.3289 19.5237 63.7147 19.561 62.0901 19.765C61.1637 19.8805 60.2617 20.0607 59.3684 20.3054C58.0816 20.6589 56.8783 21.1959 55.7499 21.8944C55.6106 21.9811 55.4661 22.0559 55.3512 22.1205C54.9507 22.0865 54.8427 21.7806 54.6738 21.5562C53.5837 20.1151 52.3492 18.8065 50.9509 17.6457C49.6815 16.5903 48.3163 15.6743 46.8466 14.9045C46.6429 14.7974 46.4391 14.6869 46.2424 14.5697C46.1884 14.5374 46.157 14.4762 46.0229 14.3215Z" fill="#202BA3"/>
<path d="M49.1329 53.6798C50.0576 52.9167 50.9509 52.2386 51.771 51.484C52.5877 50.7312 53.3295 49.9018 54.1445 49.0657C54.336 49.1982 54.5258 49.3189 54.7034 49.4549C56.5266 50.845 58.6074 51.6353 60.8712 52.0177C62.3861 52.2743 63.9115 52.2981 65.4421 52.242C65.9018 52.225 66.3615 52.2386 66.8195 52.2386C66.964 52.5462 66.7289 52.7434 66.6018 52.9507C64.8797 55.7463 62.8267 58.2888 60.3627 60.4947C59.2378 61.5008 58.0084 62.393 56.8383 63.3515C56.5005 63.6285 56.1522 63.7016 55.7308 63.6081C53.3939 63.083 51.118 62.3828 48.9501 61.3733C48.776 61.2918 48.6175 61.1796 48.4155 61.0606C48.9484 58.5947 49.2339 56.1253 49.1329 53.6798Z" fill="#A600A0"/>
<path d="M83.1339 28.5734H76.1582V24.7954H95.5164V28.5734H88.5755V46.887H83.1339V28.5734Z" fill="#202BA3"/>
<path d="M93.049 41.882V35.9593C93.049 33.8944 93.7298 32.3971 95.0898 31.4658C96.4497 30.5362 98.548 30.0706 101.385 30.0706C104.058 30.0706 106.018 30.5192 107.262 31.4148C108.505 32.3122 109.128 33.8264 109.128 35.9593V39.9768H98.1771V41.4741C98.1771 42.4275 98.5254 43.1073 99.2237 43.5169C99.9219 43.9247 101.177 44.1304 102.99 44.1304C104.664 44.1304 106.548 43.8925 108.641 43.4149V46.581C106.57 47.011 104.362 47.2285 102.013 47.2285C96.0371 47.2268 93.049 45.4458 93.049 41.882ZM104.28 37.1506V34.7679C104.28 34.2241 104.054 33.8145 103.6 33.5426C103.147 33.2707 102.384 33.1347 101.315 33.1347C100.082 33.1347 99.2567 33.2707 98.8388 33.5426C98.3965 33.8383 98.1754 34.2462 98.1754 34.7679V37.1506H104.28Z" fill="#202BA3"/>
<path d="M110.664 30.4105H115.686V32.4192C116.081 30.854 117.884 30.0706 121.093 30.0706C123.256 30.0706 124.772 30.4512 125.645 31.2109C126.517 31.9723 126.952 33.1687 126.952 34.8019V46.8869H121.861V35.4494C121.861 34.8138 121.796 34.338 121.669 34.0202C121.54 33.7024 121.286 33.4763 120.901 33.3387C120.518 33.2027 119.93 33.1347 119.139 33.1347C118.14 33.1347 117.406 33.1976 116.942 33.3217C116.477 33.4474 116.161 33.6684 116 33.9862C115.836 34.304 115.756 34.7917 115.756 35.4494V46.8869H110.664V30.4105Z" fill="#202BA3"/>
<path d="M129.672 46.717V43.4149C132.904 43.8908 135.149 44.1304 136.404 44.1304C137.473 44.1304 138.264 44.0284 138.776 43.8245C139.288 43.6205 139.544 43.2466 139.544 42.7011V41.6797C139.544 41.1121 139.38 40.7093 139.055 40.4714C138.729 40.2335 138.09 40.1145 137.136 40.1145H134.938C133.148 40.1145 131.764 39.7695 130.787 39.0761C129.81 38.3844 129.322 37.3681 129.322 36.0289V34.0202C129.322 32.5909 130.021 31.5746 131.415 30.973C132.81 30.3714 134.915 30.0706 137.729 30.0706C138.846 30.0706 140.845 30.1725 143.728 30.3765V33.5426C140.101 33.2707 138.055 33.1347 137.59 33.1347C136.218 33.1347 135.323 33.2265 134.905 33.4066C134.532 33.6106 134.348 33.9845 134.348 34.53V35.4154C134.348 35.7111 134.499 35.9661 134.8 36.1819C135.102 36.3977 135.544 36.5048 136.126 36.5048H138.358C142.497 36.5048 144.566 37.8219 144.566 40.4527V42.5295C144.566 43.3248 144.414 44.0165 144.113 44.6062C143.81 45.196 143.415 45.6616 142.927 46.0015C142.462 46.3193 141.863 46.5691 141.13 46.751C140.397 46.9328 139.636 47.0569 138.846 47.1249C138.125 47.1928 137.287 47.2268 136.335 47.2268C134.52 47.2268 132.3 47.0569 129.672 46.717Z" fill="#202BA3"/>
<path d="M142.736 19.2076H139.62V18.2678H147.225V19.2076H144.123V27.2377H142.736V19.2076Z" fill="#202BA3"/>
<path d="M148.188 18.2678H150.241L153.185 25.7303L153.227 25.7438L156.017 18.2678H157.998V27.2377H156.795V19.6512H156.724L153.763 27.2377H152.532L149.488 19.6512H149.417V27.2377H148.186V18.2678H148.188Z" fill="#202BA3"/>
</g>
<defs>
<clipPath id="clip0_1_1976">
<rect width="158" height="70" fill="white"/>
</clipPath>
</defs>
</svg>
